# xmcd
#
# Track frame offsets: 
#        150
#        25957
#        46912
#
# Disc length: 868 seconds
#
# Revision: 0
# Processed by: cddbd v1.5.2PL0 Copyright (c) Steve Scherf et al.
# Submitted via: ExactAudioCopy v0.99pb1
#
DISCID=1c036203
DTITLE=François Feldman - Le Serpent Qui Danse
DYEAR=1991
DGENRE=Ballad
TTITLE0=François Feldman - Le Serpent Qui Danse (Version Maxi)
TTITLE1=François Feldman - Le Serpent Qui Danse (Version Instrumental)
TTITLE2=François Feldman - Le Serpent Qui Danse (Version Single)
EXTD=
EXTT0=
EXTT1=
EXTT2=
PLAYORDER=
